<svg xmlns="http://www.w3.org/2000/svg" width="47" height="51" viewBox="0 0 47 51"><defs><filter id="gz00a" width="200%" height="200%" x="-50%" y="-50%"><feGaussianBlur in="SourceGraphic" result="FeGaussianBlur1086Out" stdDeviation="0.5 0.5"/></filter><mask id="gz00b"><path fill="#fff" d="M0 16.02C.067 11.125 1.619 7.16 5.07 4.027c.868-.787 1.775-1.532 2.677-2.28 1.67-1.388 3.255-1.375 4.873.072A9.38 9.38 0 0 1 14 3.334c1.424 1.994 2.842 4 3.785 6.28.292.706.483 1.48.567 2.242.16 1.432-.338 2.69-1.388 3.666a34.467 34.467 0 0 1-3.008 2.515c-1.763 1.299-2.309 2.727-1.724 4.846.415 1.502 1.164 2.841 2.04 4.11 2.103 3.046 4.507 5.828 7.364 8.196 1.129.936 2.343 1.745 3.788 2.131 1.413.378 2.643.058 3.703-.948.905-.858 1.8-1.728 2.73-2.56 1.839-1.646 3.688-1.942 5.88-.804 1.084.561 2.104 1.285 3.054 2.058 1.496 1.217 3.03 2.412 4.231 3.95.297.38.561.8.776 1.232.616 1.241.554 2.5-.416 3.48-2.03 2.055-4.096 4.09-6.825 5.258-3.543 1.517-7.166 1.645-10.854.672-3.778-.995-7.08-2.92-10.075-5.363-5.96-4.865-10.9-10.606-14.552-17.404C1.591 24.126.547 21.193.168 18.055.075 17.286.039 16.51 0 16.02z"/></mask></defs><g><g><path fill="#fff" d="M0 16.02C.067 11.125 1.619 7.16 5.07 4.027c.868-.787 1.775-1.532 2.677-2.28 1.67-1.388 3.255-1.375 4.873.072A9.38 9.38 0 0 1 14 3.334c1.424 1.994 2.842 4 3.785 6.28.292.706.483 1.48.567 2.242.16 1.432-.338 2.69-1.388 3.666a34.467 34.467 0 0 1-3.008 2.515c-1.763 1.299-2.309 2.727-1.724 4.846.415 1.502 1.164 2.841 2.04 4.11 2.103 3.046 4.507 5.828 7.364 8.196 1.129.936 2.343 1.745 3.788 2.131 1.413.378 2.643.058 3.703-.948.905-.858 1.8-1.728 2.73-2.56 1.839-1.646 3.688-1.942 5.88-.804 1.084.561 2.104 1.285 3.054 2.058 1.496 1.217 3.03 2.412 4.231 3.95.297.38.561.8.776 1.232.616 1.241.554 2.5-.416 3.48-2.03 2.055-4.096 4.09-6.825 5.258-3.543 1.517-7.166 1.645-10.854.672-3.778-.995-7.08-2.92-10.075-5.363-5.96-4.865-10.9-10.606-14.552-17.404C1.591 24.126.547 21.193.168 18.055.075 17.286.039 16.51 0 16.02z"/><path fill-opacity=".75" d="M-1.5 52.9V-1.9h50v54.8zm2-35.98c.04.49.075 1.266.168 2.035.38 3.138 1.423 6.071 2.908 8.836 3.652 6.798 8.592 12.54 14.552 17.404 2.994 2.444 6.297 4.368 10.075 5.363 3.688.973 7.311.845 10.854-.672 2.729-1.168 4.794-3.203 6.825-5.258.97-.98 1.032-2.239.416-3.48a7.286 7.286 0 0 0-.776-1.232c-1.2-1.538-2.735-2.733-4.231-3.95-.95-.773-1.97-1.497-3.054-2.058-2.192-1.138-4.041-.842-5.88.805-.93.831-1.825 1.7-2.73 2.559-1.06 1.006-2.29 1.326-3.703.948-1.445-.386-2.66-1.195-3.788-2.13-2.857-2.369-5.261-5.151-7.364-8.197-.876-1.269-1.625-2.608-2.04-4.11-.585-2.12-.039-3.547 1.724-4.846a34.467 34.467 0 0 0 3.008-2.515c1.05-.975 1.548-2.234 1.388-3.666a8.341 8.341 0 0 0-.567-2.242c-.943-2.28-2.361-4.286-3.785-6.28a9.38 9.38 0 0 0-1.38-1.515c-1.618-1.447-3.203-1.46-4.873-.072-.902.748-1.809 1.493-2.676 2.28C2.119 8.061.567 12.025.5 16.92z" filter="url(#gz00a)" mask="url(&quot;#gz00b&quot;)"/></g></g></svg>